<svg width="25" height="22" viewBox="0 0 25 22" fill="none" xmlns="http://www.w3.org/2000/svg">
<path d="M6.78 2C10.016 2.001 11.753 5.491 12.5 7.031C13.25 5.484 14.969 2.01 18.226 2.01C20.284 2.01 22.5 3.319 22.5 6.192C22.5 9.634 17.756 14.043 12.5 19.192C7.242 14.041 2.5 9.633 2.5 6.192C2.5 3.516 4.465 1.999 6.78 2ZM6.781 0C3.598 0 0.5 2.187 0.5 6.192C0.5 10.853 6.07 15.619 12.5 22C18.93 15.619 24.5 10.853 24.5 6.192C24.5 2.181 21.403 0.00999999 18.226 0.00999999C16.022 0.00999999 13.78 1.052 12.5 3.248C11.215 1.042 8.978 0 6.781 0Z" fill="black"/>
</svg>
